<?xml version="1.0" encoding="UTF-8" standalone="no"?>
<svg width="256px" height="256px" viewBox="0 0 256 256" version="1.1" xmlns="http://www.w3.org/2000/svg" xmlns:xlink="http://www.w3.org/1999/xlink" xmlns:sketch="http://www.bohemiancoding.com/sketch/ns">
    <!-- Generator: Sketch 3.2.2 (9983) - http://www.bohemiancoding.com/sketch -->
    <title>apple</title>
    <desc>Created with Sketch.</desc>
    <defs></defs>
    <g id="Page-1" stroke="none" stroke-width="1" fill="none" fill-rule="evenodd" sketch:type="MSPage">
        <g id="apple" sketch:type="MSArtboardGroup" fill="#000000">
            <path d="M188.419016,122.75819 C184.504927,107.44502 171.100357,90.3117007 154.704294,86.2519986 C144.98194,83.8437007 134.168801,92.2776581 131.332433,86.0324666 L132.98494,83.938722 C132.854307,83.7716156 132.854307,83.5488071 133.050256,83.3030624 C133.721383,82.4691688 134.418636,81.6549347 135.08813,80.8210411 C135.92418,79.7676156 136.938218,78.8976794 138.347421,78.6289986 C139.469231,78.4160198 140.434282,77.822956 141.577319,77.6869773 C142.181497,77.6148922 142.630547,77.2282539 142.739952,76.6630411 C142.824864,76.2256156 142.883649,75.820956 143.157978,75.4162964 C143.401282,75.0542326 143.456801,74.5398071 143.024079,74.1842964 C142.455826,73.7206581 141.773269,73.3323815 141.066218,73.1980411 C139.986864,72.9932539 139.141016,72.5394454 138.386611,71.8529986 C137.84775,71.3647858 136.998636,71.602339 136.619801,72.1773815 C136.121763,72.9326368 136.05318,74.0401262 134.776244,74.2219773 C134.686433,74.2350837 134.549269,74.3661475 134.542737,74.4529773 C134.480687,75.0738922 133.843851,75.2360837 133.474813,75.6096156 C132.808585,76.2747645 132.152155,76.9448283 131.712902,77.7705305 C131.080965,78.961573 130.680902,80.2279773 129.789332,81.3420198 C129.253737,82.0104454 128.585876,82.6772326 128.236433,83.5340624 C128.193978,83.6438283 128.156421,83.7863603 128.110699,83.9370837 C127.114623,83.8666368 126.116914,83.8092964 125.117573,83.7601475 C124.48237,82.6854241 123.505889,81.8564454 122.645345,80.9389986 C121.85175,80.0969134 121.095712,79.1630837 120.847509,78.0474028 C120.556851,76.7433177 120.894864,75.4064666 120.349471,74.0597858 C119.861231,72.8458071 120.160054,71.4450624 119.869395,70.1000198 C119.596699,68.8401688 118.80637,67.7785517 118.693699,66.520339 C118.630016,65.7749134 117.816826,65.3833603 117.598016,64.7853815 C116.936687,63.00619 115.470332,61.713573 114.511813,60.1244241 C113.956623,59.1987858 112.638864,59.0169347 112.135927,57.989722 C111.740763,57.1804028 110.726725,57.1853177 109.924965,56.8920624 C109.004003,56.5496581 108.247965,55.833722 107.122889,56.0598071 C106.913876,56.1024028 106.70813,56.0090198 106.549737,55.8582964 C105.881876,55.2406581 105.197687,54.6819986 104.121598,54.9916368 C103.925649,55.0489773 103.863598,54.7802964 103.723168,54.6967432 C102.454395,53.9349347 101.21175,53.1174241 99.6082309,53.0518922 C99.4024841,53.0437007 99.200003,52.9585092 98.9942562,52.9159134 C97.9704208,52.7029347 97.0870157,51.7658283 95.8868258,52.4358922 C95.7023068,52.5407432 95.5716739,52.3212113 95.4573701,52.198339 C94.9348385,51.6380411 94.2539144,51.5168071 93.4897119,51.5381049 C92.4854714,51.5692326 91.4714334,51.6282113 90.4786233,51.5479347 C89.3159904,51.4529134 88.1419271,51.9607858 87.0184841,51.5266368 C86.190598,51.2088071 85.2843322,51.5430198 84.4711423,51.1236156 C84.1657879,50.9696156 83.5746739,50.9483177 83.3232056,51.1236156 C82.4104081,51.7559986 70.0737625,52.429339 70.1668385,53.4860411 C70.1799018,53.5892539 69.4124334,53.7334241 69.2932309,53.705573 C69.2932309,53.705573 77.9999144,64.2447432 77.9770537,64.7034666 C77.9509271,65.2375517 78.2922056,65.5783177 78.7592182,65.8453603 C79.0155853,65.9928071 79.463003,66.1648283 79.463003,66.3286581 C79.4679018,67.6114454 80.4639777,68.1144028 81.4780157,68.6189986 C81.5580284,68.6583177 81.6494714,68.720573 81.675598,68.7893815 C82.0593322,69.8624666 83.2007372,70.1262326 84.0792435,70.6668709 C84.2849904,70.7913815 84.4711423,70.8700198 84.5674841,71.1042964 C84.936522,71.9627645 85.6403068,72.4821049 86.6216866,72.6705092 C86.8960157,72.7196581 87.1001296,72.8114028 87.3254714,72.9899773 C87.9916992,73.5224241 88.6513954,74.1007432 89.3372182,74.5676581 C90.2026613,75.1574454 91.128522,75.7357645 92.0788765,76.2567432 C93.2268132,76.8858496 94.4008765,77.4789134 95.5047246,78.1882964 C96.4305853,78.7829986 97.4854461,79.241722 98.6154208,79.533339 C99.3257372,79.7201049 99.9429777,80.1264028 100.728408,80.2230624 C101.461585,80.3148071 102.21599,80.550722 102.885484,80.7981049 C104.554319,81.40919 106.263978,81.6647645 108.016092,81.7073603 C110.632016,81.7712539 113.256104,81.7106368 115.875294,81.7024454 C116.272092,81.7008071 116.619902,81.5877645 116.993838,81.4370411 C117.996446,81.0323815 119.123155,81.0258283 120.093104,81.3928071 C121.254104,81.8318709 123.187471,85.0298283 123.905952,85.924339 C120.160054,90.2215943 113.770471,84.5514454 105.334851,84.7267432 C105.17156,84.7283815 88.1484587,85.5426156 75.981636,101.535679 C69.2066866,110.443105 65.8575853,120.597275 64.4941043,131.578786 C62.6603448,146.338211 65.9359651,159.847616 74.2344208,172.10536 C77.0511929,176.271552 80.0737119,180.280467 83.2987119,184.115722 L83.3476992,184.04036 C83.3476992,184.04036 93.1288385,194.047084 94.2767752,194.817084 C95.4328765,195.585445 105.594484,202.705488 113.267535,195.970445 C115.277649,194.456658 120.746269,198.842382 120.746269,198.842382 C120.746269,198.842382 129.376206,205.20553 138.584193,200.395488 C147.790547,195.585445 151.239256,197.127084 151.239256,197.127084 C151.239256,197.127084 157.072016,199.283084 163.593864,194.088041 C163.605294,194.07985 163.616725,194.073296 163.629788,194.063467 C163.716332,193.996296 163.812674,193.929126 163.909016,193.868509 C164.065775,193.75219 164.233965,193.640786 164.407054,193.54085 C166.072623,192.379296 167.223826,190.808169 168.314611,189.107616 C174.183294,179.954445 179.248585,170.352382 184.039547,160.615977 C189.962117,148.576126 191.756687,135.795765 188.419016,122.75819" id="Imported-Layers" sketch:type="MSShapeGroup"></path>
        </g>
    </g>
</svg>