<?xml version="1.0" encoding="UTF-8" standalone="no"?>
<svg width="256px" height="256px" viewBox="0 0 256 256" version="1.1" xmlns="http://www.w3.org/2000/svg" xmlns:xlink="http://www.w3.org/1999/xlink" xmlns:sketch="http://www.bohemiancoding.com/sketch/ns">
    <!-- Generator: Sketch 3.2.2 (9983) - http://www.bohemiancoding.com/sketch -->
    <title>bottle</title>
    <desc>Created with Sketch.</desc>
    <defs></defs>
    <g id="Page-1" stroke="none" stroke-width="1" fill="none" fill-rule="evenodd" sketch:type="MSPage">
        <g id="bottle" sketch:type="MSArtboardGroup">
            <path d="M107.885611,74.9900467 C107.885611,74.9900467 108.777254,73.4357009 109.220468,73.6587383 C109.665421,73.8817757 109.220468,65.0190654 109.220468,65.0190654 C109.220468,65.0190654 102.763444,59.4811682 100.536944,59.2598598 C98.3121825,59.0385514 98.977873,53.4989252 100.536944,52.835 C102.097754,52.1710748 112.562825,43.7527103 112.562825,43.7527103 L133.498183,36 L147.081397,41.3165888 L149.309635,42.8692056 L160.666349,40.872243 L162.225421,48.8497196 L151.981087,52.1710748 C151.981087,52.1710748 147.750563,56.8237383 148.195516,59.923785 C148.642206,63.0255607 149.977063,67.4551869 149.977063,67.4551869 L148.862944,70.721215 L152.648516,74.9900467 C152.648516,74.9900467 153.315944,80.9705607 155.989135,81.634486 C158.660587,82.3001402 156.658302,84.0706075 156.658302,84.0706075 L151.760349,85.1788785 L139.510254,61.6977103 L140.181159,57.4876636 L134.388087,58.817243 L134.388087,61.6977103 L123.697063,66.1757477 L122.13973,73.2161215 L123.697063,76.758785 L125.031921,85.1788785 L123.697063,85.8428037 L123.697063,87.1741121 L125.031921,89.3889252 L125.031921,92.7120093 L123.697063,93.8150935 L123.697063,96.0350935 L125.257873,96.0350935 L130.665087,119.514533 L138.616873,126.824626 L137.05954,205.912991 C137.05954,205.912991 137.728706,210.565654 136.612849,212.55743 C135.500468,214.550935 129.265921,217.874019 129.265921,217.874019 C129.265921,217.874019 96.5306349,224.743224 92.2966349,210.565654 L92.2966349,136.128224 C92.2966349,136.128224 91.6292063,128.489626 92.2966349,127.766916 C92.9675397,127.045935 100.536944,117.963645 100.536944,117.963645 L107.663135,94.703785 L106.328278,92.4907009 L106.328278,87.3954206 L108.99973,86.7314953 L108.777254,85.4001869 L106.328278,85.1788785 L106.549016,78.9770561 L108.777254,76.5392056 L107.885611,74.9900467" id="Imported-Layers" sketch:type="MSShapeGroup"></path>
        </g>
    </g>
</svg>
