<?xml version="1.0" encoding="UTF-8" standalone="no"?>
<svg width="256px" height="256px" viewBox="0 0 256 256" version="1.1" xmlns="http://www.w3.org/2000/svg" xmlns:xlink="http://www.w3.org/1999/xlink" xmlns:sketch="http://www.bohemiancoding.com/sketch/ns">
    <!-- Generator: Sketch 3.2.2 (9983) - http://www.bohemiancoding.com/sketch -->
    <title>bottle</title>
    <desc>Created with Sketch.</desc>
    <defs></defs>
    <g id="Page-1" stroke="none" stroke-width="1" fill="none" fill-rule="evenodd" sketch:type="MSPage">
        <g id="bottle" sketch:type="MSArtboardGroup" fill="#000000">
            <path d="M124.885611,74.9900467 C124.885611,74.9900467 125.777254,73.4357009 126.220468,73.6587383 C126.665421,73.8817757 126.220468,65.0190654 126.220468,65.0190654 C126.220468,65.0190654 119.763444,59.4811682 117.536944,59.2598598 C115.312183,59.0385514 115.977873,53.4989252 117.536944,52.835 C119.097754,52.1710748 129.562825,43.7527103 129.562825,43.7527103 L150.498183,36 L164.081397,41.3165888 L166.309635,42.8692056 L177.666349,40.872243 L179.225421,48.8497196 L168.981087,52.1710748 C168.981087,52.1710748 164.750563,56.8237383 165.195516,59.923785 C165.642206,63.0255607 166.977063,67.4551869 166.977063,67.4551869 L165.862944,70.721215 L169.648516,74.9900467 C169.648516,74.9900467 170.315944,80.9705607 172.989135,81.634486 C175.660587,82.3001402 173.658302,84.0706075 173.658302,84.0706075 L168.760349,85.1788785 L156.510254,61.6977103 L157.181159,57.4876636 L151.388087,58.817243 L151.388087,61.6977103 L140.697063,66.1757477 L139.13973,73.2161215 L140.697063,76.758785 L142.031921,85.1788785 L140.697063,85.8428037 L140.697063,87.1741121 L142.031921,89.3889252 L142.031921,92.7120093 L140.697063,93.8150935 L140.697063,96.0350935 L142.257873,96.0350935 L147.665087,119.514533 L155.616873,126.824626 L154.05954,205.912991 C154.05954,205.912991 154.728706,210.565654 153.612849,212.55743 C152.500468,214.550935 146.265921,217.874019 146.265921,217.874019 C146.265921,217.874019 113.530635,224.743224 109.296635,210.565654 L109.296635,136.128224 C109.296635,136.128224 108.629206,128.489626 109.296635,127.766916 C109.96754,127.045935 117.536944,117.963645 117.536944,117.963645 L124.663135,94.703785 L123.328278,92.4907009 L123.328278,87.3954206 L125.99973,86.7314953 L125.777254,85.4001869 L123.328278,85.1788785 L123.549016,78.9770561 L125.777254,76.5392056 L124.885611,74.9900467" id="Imported-Layers" sketch:type="MSShapeGroup"></path>
        </g>
    </g>
</svg>