<?xml version="1.0" encoding="UTF-8" standalone="no"?>
<svg width="256px" height="256px" viewBox="0 0 256 256" version="1.1" xmlns="http://www.w3.org/2000/svg" xmlns:xlink="http://www.w3.org/1999/xlink" xmlns:sketch="http://www.bohemiancoding.com/sketch/ns">
    <!-- Generator: Sketch 3.2.2 (9983) - http://www.bohemiancoding.com/sketch -->
    <title>butterfly</title>
    <desc>Created with Sketch.</desc>
    <defs></defs>
    <g id="Page-1" stroke="none" stroke-width="1" fill="none" fill-rule="evenodd" sketch:type="MSPage">
        <g id="butterfly" sketch:type="MSArtboardGroup">
            <path d="M216.185468,60.5505495 C215.842106,59.8723724 215.324795,59.3769557 214.683451,59.0053932 C212.529501,57.7562786 210.218241,57.0176849 207.754207,56.6431015 C205.933031,56.3651849 204.113367,56.0585703 202.272526,56.0117474 C196.458073,55.8607057 190.935552,57.177789 185.550678,59.2923724 C180.433535,61.3042474 175.830678,64.1831015 171.2974,67.2265911 C164.6374,71.7019557 158.541602,76.8419036 153.161266,82.7793515 C147.82782,88.6624245 142.830173,94.8219036 138.67656,101.627841 C136.614879,105.014195 134.255215,108.229872 132.834879,112.030081 C132.644291,110.945602 132.148157,110.111852 131.562778,109.291695 C130.795888,108.217789 129.584291,107.672529 128.275888,107.847737 C126.967484,107.672529 125.754375,108.217789 124.988997,109.291695 C124.403619,110.111852 123.907484,110.945602 123.716896,112.030081 C122.295047,108.229872 119.936896,105.014195 117.875215,101.627841 C113.721602,94.8219036 108.723955,88.6624245 103.39051,82.7793515 C98.0101734,76.8419036 91.9143751,71.7019557 85.2543751,67.2265911 C80.7226104,64.1831015 76.1182407,61.3042474 71.0010978,59.2923724 C65.6162239,57.177789 60.0937029,55.8607057 54.2777365,56.0117474 C52.4384087,56.0585703 50.6202575,56.3651849 48.799081,56.6431015 C46.3335348,57.0176849 44.0222743,57.7562786 41.8698373,59.0053932 C41.2269802,59.3769557 40.7096692,59.8723724 40.3647953,60.5505495 C38.4876524,64.2601328 38.6131986,67.9712265 40.3345432,71.6868515 C40.6718541,72.4163828 41.0500054,73.1308099 41.3721902,73.8678932 C42.6034508,76.708987 43.3688289,79.735862 44.7543751,82.5225807 C44.9404255,82.8941432 45.1158877,83.3291432 45.1052995,83.7278932 C45.0311818,86.0373203 46.0476524,88.1247161 46.3743751,90.3586224 C46.8947113,93.9050807 48.2817701,97.3125807 48.0442911,100.978362 C48.0382407,101.053883 48.079081,101.130914 48.0836188,101.206435 C48.3452995,104.346591 49.8170642,107.222424 50.0953835,110.362581 C50.2254676,111.84581 50.7382407,113.238414 51.1360558,114.670289 C52.3249634,118.949299 53.5985768,123.112008 56.4331986,126.697737 C57.6236188,128.200602 58.9214339,128.780602 60.7259718,128.845549 C63.486476,128.942216 66.2394171,129.094768 68.9953835,128.868206 C69.7562239,128.803258 69.8303415,129.217112 69.6503415,129.812216 C69.5308457,130.220029 69.2010978,130.402789 68.8819381,130.627841 C67.634039,131.512945 66.2575684,132.355758 65.8068121,133.92206 C64.9809297,136.793362 62.8647953,138.920029 61.448997,141.445445 C60.5111818,143.117477 59.1574003,144.656591 58.1333667,146.35732 C57.3392491,147.677424 57.5268121,149.287529 58.6930306,150.313102 C59.1755516,150.734508 59.6202575,151.187633 59.6822743,151.814456 C59.8063079,152.951799 60.2858037,153.944143 60.7683247,154.944039 C61.1842911,155.798935 61.2205936,156.552633 60.5731986,157.392424 C59.5234508,158.75482 58.5342071,160.186695 58.051686,161.882893 C57.5918541,163.499039 58.1454676,164.580497 59.7246272,165.107633 C60.0861398,165.229977 60.4567281,165.408206 60.8288289,165.421799 C63.9221062,165.522997 65.2456356,167.796174 66.5585768,170.06482 C66.7174003,170.338206 66.85656,170.675029 66.734039,171.126643 C66.2454676,172.916487 65.7629465,174.724456 65.7326944,176.591331 C65.6888289,179.186227 66.6387449,180.232945 69.2192491,180.64982 C70.0103415,180.776695 71.0086608,180.957945 71.1795852,181.811331 C71.4110138,182.992477 71.9979045,183.972737 72.6195852,184.897112 C73.5725264,186.307841 73.6723583,187.742737 73.4621062,189.363414 C73.2896692,190.692581 73.0476524,192.002112 72.7526944,193.290497 C72.7526944,193.290497 72.8358877,199.64331 78.1118541,196.793154 C78.866644,196.385341 79.7197533,196.145185 80.7180726,196.080237 C82.761602,195.948831 83.2168961,196.170862 84.1531986,197.980341 C84.8852995,199.401643 86.0137029,199.71581 87.3705096,198.821643 C87.8757197,198.486331 88.3884928,198.277893 88.9859718,198.345862 C91.4152155,198.605654 91.7147113,199.496799 94.5100054,199.915185 C98.1054676,200.455914 100.415215,196.67232 100.375888,194.908154 C100.353199,193.878049 101.248661,192.853987 102.268157,192.896279 C103.021434,192.924977 103.79135,192.977841 104.508325,193.334299 C105.638241,193.896174 106.452022,193.566904 106.769669,192.349508 C107.223451,190.620081 107.71051,188.884612 107.946476,187.118935 C108.454711,183.283987 109.810005,179.689195 111.057905,176.088362 C111.838409,173.83331 112.662778,171.532945 113.8774,169.425914 C114.158745,168.938049 114.337232,168.35956 114.418913,167.799195 C114.69572,166.001799 115.24782,164.298049 115.917905,162.618466 C116.453367,161.268154 117.032694,159.926904 117.428997,158.53581 C117.878241,156.958935 118.024963,155.295966 118.51051,153.731174 C119.737232,149.740654 121.084963,145.783362 122.379753,141.810966 C122.617232,141.082945 122.809333,140.342841 123.058913,139.619352 C123.188997,139.235706 123.461266,138.909456 123.919585,139.040862 C124.353703,139.164716 124.452022,139.551383 124.383955,139.97581 C124.331014,140.314143 124.246308,140.650966 124.217568,140.993831 C124.087484,142.44081 123.601938,143.913466 123.936224,145.331747 C124.445972,147.500706 124.199417,149.724039 124.745468,151.905081 C125.324795,154.237164 125.140257,156.703674 125.274879,159.112789 C125.404963,161.405602 125.932863,163.613831 127.549837,165.331174 C127.549837,165.331174 128.275888,166.033518 129.003451,165.331174 C130.696056,163.687841 131.146812,161.405602 131.276896,159.112789 C131.411518,156.703674 131.22698,154.237164 131.80782,151.905081 C132.352358,149.724039 132.105804,147.500706 132.615552,145.331747 C132.949837,143.913466 132.465804,142.44081 132.334207,140.993831 C132.305468,140.650966 132.220762,140.314143 132.16782,139.97581 C132.099753,139.551383 132.198073,139.164716 132.635215,139.040862 C133.09051,138.909456 133.362778,139.235706 133.492863,139.619352 C133.74093,140.342841 133.934543,141.082945 134.172022,141.810966 C135.465299,145.783362 136.814543,149.740654 138.042778,153.731174 C138.526812,155.295966 138.675047,156.958935 139.122778,158.53581 C139.519081,159.926904 140.098409,161.268154 140.633871,162.618466 C141.303955,164.298049 141.856056,166.001799 142.132863,167.799195 C142.214543,168.35956 142.394543,168.938049 142.674375,169.425914 C143.892022,171.532945 144.713367,173.83331 145.493871,176.088362 C146.743283,179.689195 148.097064,183.283987 148.608325,187.118935 C148.841266,188.884612 149.329837,190.620081 149.782106,192.349508 C150.099753,193.566904 150.913535,193.896174 152.043451,193.334299 C152.761938,192.977841 153.530342,192.924977 154.285131,192.896279 C155.303115,192.853987 156.198577,193.878049 156.175888,194.908154 C156.135047,196.67232 158.444795,200.455914 162.04177,199.915185 C164.837064,199.496799 165.135047,198.605654 167.565804,198.345862 C168.163283,198.277893 168.677568,198.486331 169.182778,198.821643 C170.538073,199.71581 171.666476,199.401643 172.398577,197.980341 C173.334879,196.170862 173.790173,195.948831 175.833703,196.080237 C176.832022,196.145185 177.683619,196.385341 178.439921,196.793154 C183.715888,199.64331 183.799081,193.290497 183.799081,193.290497 C183.504123,192.002112 183.263619,190.692581 183.089669,189.363414 C182.879417,187.742737 182.979249,186.307841 183.93219,184.897112 C184.555384,183.972737 185.140762,182.992477 185.373703,181.811331 C185.541602,180.957945 186.541434,180.776695 187.334039,180.64982 C189.914543,180.232945 190.862947,179.186227 190.819081,176.591331 C190.788829,174.724456 190.306308,172.916487 189.817736,171.126643 C189.695215,170.675029 189.834375,170.338206 189.993199,170.06482 C191.304627,167.796174 192.629669,165.522997 195.722947,165.421799 C196.093535,165.408206 196.464123,165.229977 196.827148,165.107633 C198.406308,164.580497 198.959921,163.499039 198.500089,161.882893 C198.017568,160.186695 197.028325,158.75482 195.978577,157.392424 C195.332694,156.552633 195.368997,155.798935 195.783451,154.944039 C196.264459,153.944143 196.745468,152.951799 196.867989,151.814456 C196.931518,151.187633 197.377736,150.734508 197.858745,150.313102 C199.024963,149.287529 199.212526,147.677424 198.418409,146.35732 C197.394375,144.656591 196.040594,143.117477 195.102778,141.445445 C193.68698,138.920029 191.570846,136.793362 190.743451,133.92206 C190.294207,132.355758 188.917736,131.512945 187.669837,130.627841 C187.35219,130.402789 187.02093,130.220029 186.901434,129.812216 C186.721434,129.217112 186.795552,128.803258 187.554879,128.868206 C190.312358,129.094768 193.065299,128.942216 195.825804,128.845549 C197.630342,128.780602 198.929669,128.200602 200.117064,126.697737 C202.953199,123.112008 204.225299,118.949299 205.41572,114.670289 C205.813535,113.238414 206.326308,111.84581 206.457905,110.362581 C206.736224,107.222424 208.206476,104.346591 208.468157,101.206435 C208.474207,101.130914 208.512022,101.053883 208.507484,100.978362 C208.268493,97.3125807 209.657064,93.9050807 210.1774,90.3586224 C210.504123,88.1247161 211.520594,86.0373203 211.446476,83.7278932 C211.435888,83.3291432 211.61135,82.8941432 211.7974,82.5225807 C213.182947,79.735862 213.948325,76.708987 215.179585,73.8678932 C215.503283,73.1308099 215.879921,72.4163828 216.217232,71.6868515 C217.938577,67.9712265 218.064123,64.2601328 216.185468,60.5505495" id="Imported-Layers" sketch:type="MSShapeGroup"></path>
        </g>
    </g>
</svg>
