<?xml version="1.0" encoding="UTF-8" standalone="no"?>
<svg width="256px" height="256px" viewBox="0 0 256 256" version="1.1" xmlns="http://www.w3.org/2000/svg" xmlns:xlink="http://www.w3.org/1999/xlink" xmlns:sketch="http://www.bohemiancoding.com/sketch/ns">
    <!-- Generator: Sketch 3.2.2 (9983) - http://www.bohemiancoding.com/sketch -->
    <title>cow</title>
    <desc>Created with Sketch.</desc>
    <defs></defs>
    <g id="Page-1" stroke="none" stroke-width="1" fill="none" fill-rule="evenodd" sketch:type="MSPage">
        <g id="cow" sketch:type="MSArtboardGroup" fill="#000000">
            <path d="M255.705,96.8788802 C255.705,96.8788802 242.955,81.0022135 243.435,80.2788802 C243.916667,79.5572135 251.013333,74.5072135 247.283333,70.5388802 C243.558333,66.5688802 239.106667,71.8622135 239.106667,71.9822135 C239.106667,72.1022135 231.888333,64.6438802 231.888333,64.6438802 C231.888333,64.6438802 226.956667,60.4355469 223.228333,65.4855469 C220.463333,64.6438802 216.01,65.9672135 215.411667,67.1705469 C214.81,68.3722135 214.568333,71.6205469 214.568333,71.6205469 C214.568333,71.6205469 192.678333,75.5905469 191.835,76.6722135 C190.995,77.7538802 177.883333,76.4322135 177.883333,76.4322135 C177.883333,76.4322135 166.458333,75.4688802 156.715,78.9572135 C146.971667,82.4455469 111.49,79.3155469 111.49,79.3155469 C111.49,79.3155469 84.6683333,81.3638802 76.85,77.7538802 C69.0333333,74.1472135 63.0183333,73.6238802 63.0183333,73.6238802 C63.0183333,73.6238802 48.2633333,75.2272135 46.0183333,84.2088802 C43.7716667,93.1888802 42.1683333,110.830547 43.7716667,115.000547 C45.3783333,119.172214 44.7366667,129.435547 44.7366667,129.435547 C44.7366667,129.435547 43.4383333,141.302214 43.125,144.82888 C42.8116667,148.357214 38,179.790547 38,179.790547 L38,184.602214 L45.3783333,189.090547 L53.8766667,187.80888 L50.5083333,182.035547 L50.5083333,166.15888 L56.5233333,155.81388 C56.5233333,155.81388 58.6883333,160.38388 60.1316667,161.105547 C61.575,161.827214 66.3866667,179.86888 66.3866667,179.86888 L66.3866667,186.365547 C66.3866667,186.365547 68.7916667,188.04888 70.7166667,188.04888 C72.64,188.04888 76.97,187.327214 76.97,187.327214 L75.7683333,180.590547 L73.12,169.287214 L71.9183333,159.42388 L74.085,152.445547 C74.085,152.445547 80.0983333,157.497214 84.9083333,149.800547 C88.0666667,146.62888 92.1266667,150.282214 92.1266667,150.282214 C92.1266667,150.282214 107.281667,158.220547 108.965,157.257214 C110.648333,156.295547 111.37,167.120547 125.561667,157.73888 C134.943333,157.73888 152.061667,152.205547 154.328333,149.800547 C156.595,147.395547 166.938333,153.890547 166.938333,153.890547 L168.14,160.142214 C168.14,160.142214 167.418333,164.95388 168.14,166.15888 C168.863333,167.360547 167.658333,170.96888 168.14,171.690547 C168.621667,172.41388 171.508333,183.23888 171.508333,183.23888 L174.155,189.090547 L178.968333,189.090547 C178.968333,189.090547 183.778333,192.860547 183.778333,191.417214 C183.778333,189.972214 180.168333,182.275547 180.168333,182.275547 C180.168333,182.275547 180.65,157.497214 180.41,156.295547 C180.168333,155.09388 191.475,159.905547 196.286667,149.800547 C200.498333,143.027214 200.856667,144.26888 202.541667,142.102214 C204.225,139.93888 210.48,132.962214 210.48,128.872214 C210.48,124.782214 214.568333,119.492214 214.81,114.43888 C216.301667,110.612214 219.38,109.147214 219.38,109.147214 C219.38,109.147214 225.151667,109.147214 225.875,107.70388 C226.596667,106.260547 226.115,110.110547 231.166667,107.70388 C236.698333,109.387214 243.195,105.29888 243.195,105.29888 C243.195,105.29888 248.486667,109.86888 252.336667,104.575547 C256.185,99.2838802 255.705,96.8788802 255.705,96.8788802 L255.705,96.8788802 Z M50.0966667,136.025547 L50.0966667,131.08888 C50.0966667,131.08888 49.735,125.985547 49.0133333,125.142214 C48.2916667,124.302214 47.69,114.800547 47.69,114.800547 L51.6583333,131.757214 L50.0966667,136.025547 L50.0966667,136.025547 Z" id="Imported-Layers" sketch:type="MSShapeGroup"></path>
        </g>
    </g>
</svg>