<?xml version="1.0" encoding="UTF-8" standalone="no"?>
<svg width="256px" height="256px" viewBox="0 0 256 256" version="1.1" xmlns="http://www.w3.org/2000/svg" xmlns:xlink="http://www.w3.org/1999/xlink" xmlns:sketch="http://www.bohemiancoding.com/sketch/ns">
    <!-- Generator: Sketch 3.2.2 (9983) - http://www.bohemiancoding.com/sketch -->
    <title>cow</title>
    <desc>Created with Sketch.</desc>
    <defs></defs>
    <g id="Page-1" stroke="none" stroke-width="1" fill="none" fill-rule="evenodd" sketch:type="MSPage">
        <g id="cow" sketch:type="MSArtboardGroup">
            <path d="M235.705,96.8788802 C235.705,96.8788802 222.955,81.0022135 223.435,80.2788802 C223.916667,79.5572135 231.013333,74.5072135 227.283333,70.5388802 C223.558333,66.5688802 219.106667,71.8622135 219.106667,71.9822135 C219.106667,72.1022135 211.888333,64.6438802 211.888333,64.6438802 C211.888333,64.6438802 206.956667,60.4355469 203.228333,65.4855469 C200.463333,64.6438802 196.01,65.9672135 195.411667,67.1705469 C194.81,68.3722135 194.568333,71.6205469 194.568333,71.6205469 C194.568333,71.6205469 172.678333,75.5905469 171.835,76.6722135 C170.995,77.7538802 157.883333,76.4322135 157.883333,76.4322135 C157.883333,76.4322135 146.458333,75.4688802 136.715,78.9572135 C126.971667,82.4455469 91.49,79.3155469 91.49,79.3155469 C91.49,79.3155469 64.6683333,81.3638802 56.85,77.7538802 C49.0333333,74.1472135 43.0183333,73.6238802 43.0183333,73.6238802 C43.0183333,73.6238802 28.2633333,75.2272135 26.0183333,84.2088802 C23.7716667,93.1888802 22.1683333,110.830547 23.7716667,115.000547 C25.3783333,119.172214 24.7366667,129.435547 24.7366667,129.435547 C24.7366667,129.435547 23.4383333,141.302214 23.125,144.82888 C22.8116667,148.357214 18,179.790547 18,179.790547 L18,184.602214 L25.3783333,189.090547 L33.8766667,187.80888 L30.5083333,182.035547 L30.5083333,166.15888 L36.5233333,155.81388 C36.5233333,155.81388 38.6883333,160.38388 40.1316667,161.105547 C41.575,161.827214 46.3866667,179.86888 46.3866667,179.86888 L46.3866667,186.365547 C46.3866667,186.365547 48.7916667,188.04888 50.7166667,188.04888 C52.64,188.04888 56.97,187.327214 56.97,187.327214 L55.7683333,180.590547 L53.12,169.287214 L51.9183333,159.42388 L54.085,152.445547 C54.085,152.445547 60.0983333,157.497214 64.9083333,149.800547 C68.0666667,146.62888 72.1266667,150.282214 72.1266667,150.282214 C72.1266667,150.282214 87.2816667,158.220547 88.965,157.257214 C90.6483333,156.295547 91.37,167.120547 105.561667,157.73888 C114.943333,157.73888 132.061667,152.205547 134.328333,149.800547 C136.595,147.395547 146.938333,153.890547 146.938333,153.890547 L148.14,160.142214 C148.14,160.142214 147.418333,164.95388 148.14,166.15888 C148.863333,167.360547 147.658333,170.96888 148.14,171.690547 C148.621667,172.41388 151.508333,183.23888 151.508333,183.23888 L154.155,189.090547 L158.968333,189.090547 C158.968333,189.090547 163.778333,192.860547 163.778333,191.417214 C163.778333,189.972214 160.168333,182.275547 160.168333,182.275547 C160.168333,182.275547 160.65,157.497214 160.41,156.295547 C160.168333,155.09388 171.475,159.905547 176.286667,149.800547 C180.498333,143.027214 180.856667,144.26888 182.541667,142.102214 C184.225,139.93888 190.48,132.962214 190.48,128.872214 C190.48,124.782214 194.568333,119.492214 194.81,114.43888 C196.301667,110.612214 199.38,109.147214 199.38,109.147214 C199.38,109.147214 205.151667,109.147214 205.875,107.70388 C206.596667,106.260547 206.115,110.110547 211.166667,107.70388 C216.698333,109.387214 223.195,105.29888 223.195,105.29888 C223.195,105.29888 228.486667,109.86888 232.336667,104.575547 C236.185,99.2838802 235.705,96.8788802 235.705,96.8788802 L235.705,96.8788802 Z M30.0966667,136.025547 L30.0966667,131.08888 C30.0966667,131.08888 29.735,125.985547 29.0133333,125.142214 C28.2916667,124.302214 27.69,114.800547 27.69,114.800547 L31.6583333,131.757214 L30.0966667,136.025547 L30.0966667,136.025547 Z" id="Imported-Layers" sketch:type="MSShapeGroup"></path>
        </g>
    </g>
</svg>
