<?xml version="1.0" encoding="UTF-8" standalone="no"?>
<svg width="256px" height="256px" viewBox="0 0 256 256" version="1.1" xmlns="http://www.w3.org/2000/svg" xmlns:xlink="http://www.w3.org/1999/xlink" xmlns:sketch="http://www.bohemiancoding.com/sketch/ns">
    <!-- Generator: Sketch 3.2.2 (9983) - http://www.bohemiancoding.com/sketch -->
    <title>shoe</title>
    <desc>Created with Sketch.</desc>
    <defs></defs>
    <g id="Page-1" stroke="none" stroke-width="1" fill="none" fill-rule="evenodd" sketch:type="MSPage">
        <g id="shoe" sketch:type="MSArtboardGroup" fill="#000000">
            <path d="M49.4833173,170.470605 C49.3580941,168.504894 49.8957191,166.767987 51.2247548,165.306646 C51.8375137,164.631925 52.2348887,163.91545 51.9977994,162.971842 C49.2512369,151.985904 51.2280941,141.372399 54.3519959,130.795636 C55.3354155,127.4571 56.8547905,124.041739 56.305478,120.512811 C55.2836566,113.987718 55.4138887,107.349059 54.1182459,100.872399 C53.6974959,98.7530381 53.4153262,96.6403576 53.2984512,94.4825845 C53.1598709,91.9089556 52.9211119,89.3470174 52.1814602,86.8385226 C51.3483084,84.0177185 50.7322102,81.1250999 50.5201655,78.1890587 C50.3982816,76.4254298 49.9975673,74.9807906 48.3913709,74.0171412 C47.7368709,73.6213267 47.2576834,72.9015123 47.9873173,72.2351412 C49.5834959,70.7838216 48.2962012,70.0990793 47.2576834,69.5412649 C44.6463619,68.1383783 42.3105316,66.3897803 40.0932459,64.4390999 C36.8992191,61.638337 34.8355405,58.2229762 34.1292816,54.0209968 C33.7051923,51.5074917 34.2695316,50.6106463 36.6437637,49.8874917 C37.6038084,49.5952236 38.6439959,49.4432442 39.5088709,48.968935 C43.0685494,47.0132442 45.8585227,48.2374298 48.6601834,50.6874711 C53.3251655,54.7625226 55.3120405,60.2822133 57.2705316,65.8386463 C57.7163262,67.1079247 58.152103,67.4720071 59.5596119,67.0611618 C74.3242637,62.7623164 89.264228,61.7435535 104.406219,64.8549556 C108.266433,65.6499247 112.171728,66.22277 116.055317,66.902502 C118.432889,67.3200278 118.950478,68.0214711 118.808558,70.369636 C118.477969,75.7390174 119.803666,81.0566257 119.319469,86.4376979 C119.252683,87.1975948 119.78363,87.7587494 120.236103,88.3265845 C121.842299,90.3357185 122.596978,92.5669762 121.93246,95.1439453 C121.727094,95.9472649 121.70038,96.6871205 122.378255,97.32677 C123.809139,98.6862339 124.198166,100.331285 123.728996,102.245224 C123.426791,103.47442 123.652192,104.591718 125.027978,105.037636 C127.949853,105.984584 128.89988,108.306028 129.116933,111.019945 C129.287237,113.132626 129.841558,114.582275 132.155683,115.342172 C134.132541,115.990172 134.750308,118.097842 135.154362,120.025141 C135.361398,121.010502 135.530032,121.878956 136.745532,121.95077 C139.567228,122.121121 140.68088,124.126914 141.243549,126.445017 C141.674317,128.200296 142.432335,129.063739 144.317362,128.931801 C146.629817,128.769801 147.559808,130.438234 148.25438,132.253636 C148.90888,133.952131 149.316273,135.849368 151.929264,134.840626 C152.563728,134.596791 153.341782,135.166296 153.373505,135.829327 C153.515424,139.002523 156.163478,139.850935 158.280585,140.89809 C160.628103,142.060481 161.66996,143.677141 161.48463,146.153904 C161.371094,147.648646 161.932094,148.587244 163.252782,149.251945 C169.902969,152.585471 176.882076,154.906914 184.228505,156.050935 C189.963728,156.94444 195.767407,157.291822 201.507639,158.180316 C207.586808,159.125595 211.106416,162.659533 212.744335,168.311162 C213.402174,170.585842 213.722746,172.890584 216.148737,174.174894 C217.073719,174.665904 217.434362,175.848337 217.709853,176.920543 C218.267514,179.073306 218.878603,181.209368 219.442942,183.360461 C220.441389,187.178316 219.351112,190.222914 216.148737,192.57943 C209.812442,197.239017 202.567862,199.937904 195.147969,202.235966 C192.616791,203.020914 190.062237,204.07976 187.467612,204.230069 C184.614192,204.395409 182.149799,205.579512 179.485049,206.137327 C176.646657,206.728543 173.696398,206.793677 170.804576,207.020811 C167.991228,207.247945 165.106085,208.13978 162.187549,208.435389 C160.97038,208.560646 159.761558,208.751038 158.606166,208.159822 C158.058523,207.877574 157.529246,207.939368 156.946541,208.086337 C153.468674,208.969822 150.052585,208.724316 146.573049,207.824131 C144.541094,207.296378 142.323808,207.932688 140.205032,207.426646 C138.473612,207.012461 136.608621,207.00578 135.406478,205.365739 C135.130987,204.989966 134.715246,204.879739 134.252755,204.974935 C130.502737,205.748193 127.534112,204.390399 125.06471,201.626378 C124.787549,201.319079 124.395183,201.090275 124.011166,200.908234 C115.586148,196.841533 106.947416,193.402791 97.5873977,192.175265 C97.305228,192.136852 97.0063619,192.113471 96.7458977,192.008255 C92.6886655,190.328131 89.6933262,191.265059 87.5895762,195.301698 C86.9484334,196.534234 86.2071119,198.342956 84.5875584,198.428131 C82.3235227,198.545038 79.9542994,198.436481 77.8555584,197.370956 C76.9389244,196.906667 76.3495405,196.993512 75.356103,197.269079 C72.6896834,198.012275 69.956478,197.461141 67.4236298,196.429017 C66.5654334,196.079966 65.9643619,195.852832 65.0577459,196.233615 C63.4782637,196.899987 61.7718887,196.352193 60.5096387,195.614007 C58.0602727,194.184399 55.2669602,193.474605 52.9661923,191.782791 C51.2648262,190.533554 50.5034691,188.810007 50.4667369,186.777492 C50.3782459,181.324605 50.3114602,175.876729 49.4833173,170.470605" id="Imported-Layers" sketch:type="MSShapeGroup"></path>
        </g>
    </g>
</svg>